<?xml version="1.0" standalone="no"?>
<!DOCTYPE svg PUBLIC "-//W3C//DTD SVG 20010904//EN"
 "http://www.w3.org/TR/2001/REC-SVG-20010904/DTD/svg10.dtd">
<svg version="1.0" xmlns="http://www.w3.org/2000/svg"
 width="50.000000pt" height="50.000000pt" viewBox="0 0 50.000000 50.000000"
 preserveAspectRatio="xMidYMid meet">

<g transform="translate(0.000000,50.000000) scale(0.100000,-0.100000)"
fill="#000000" stroke="none">
<path d="M260 453 c-55 -50 -48 -133 11 -133 31 0 79 51 85 91 11 67 -42 90
-96 42z"/>
<path d="M116 431 c-26 -29 -32 -88 -11 -111 36 -40 81 -13 92 54 10 62 -43
99 -81 57z"/>
<path d="M384 350 c-27 -11 -64 -57 -64 -81 0 -57 84 -63 133 -9 31 34 34 61
11 84 -17 17 -47 20 -80 6z"/>
<path d="M104 270 c-92 -29 -112 -118 -34 -150 19 -8 39 -28 51 -51 21 -43 56
-58 93 -41 57 26 84 178 39 223 -24 25 -99 34 -149 19z"/>
<path d="M350 193 c-26 -10 -50 -35 -50 -53 0 -9 9 -25 20 -35 36 -32 130 0
130 45 0 37 -54 60 -100 43z"/>
</g>
</svg>
