<svg width="19" height="18" viewBox="0 0 19 18" fill="none" xmlns="http://www.w3.org/2000/svg">
<path d="M9.88825 13.3395L9.88821 13.3394L9.88642 13.3412L9.84732 13.3784L9.80248 13.3396L9.80244 13.3395C8.09153 11.859 6.67416 10.6322 5.68405 9.52791C4.69327 8.42282 4.13893 7.44943 4.13893 6.47652C4.13893 5.13304 5.19428 4.12325 6.60893 4.12325C7.69969 4.12325 8.75995 4.79963 9.13304 5.71265L9.14574 5.74374H9.17932H10.5185H10.5521L10.5648 5.71265C10.9379 4.79963 11.9982 4.12325 13.0889 4.12325C14.5036 4.12325 15.5589 5.13304 15.5589 6.47652C15.5589 7.44942 15.0046 8.42281 14.0129 9.52789C13.0219 10.6322 11.6028 11.859 9.88825 13.3395ZM9.81615 15.3377L9.84892 15.3662L9.8817 15.3377L10.9256 14.4314C12.7786 12.829 14.3209 11.4942 15.3994 10.2358C16.4783 8.97698 17.0989 7.78808 17.0989 6.47652C17.0989 4.32489 15.3318 2.64995 13.0889 2.64995C11.8415 2.64995 10.6436 3.19495 9.84892 4.054C9.05423 3.19495 7.85638 2.64995 6.60893 2.64995C4.36603 2.64995 2.59893 4.32489 2.59893 6.47652C2.59893 7.78808 3.21952 8.97698 4.29846 10.2358C5.37694 11.4942 6.91924 12.829 8.77222 14.4314L9.81615 15.3377Z" fill="#3F3F3F" stroke="#828282" stroke-width="0.1"/>
</svg>
