<svg width="13" height="12" viewBox="0 0 13 12" fill="none" xmlns="http://www.w3.org/2000/svg">
<path d="M6.34912 11.1347L6.28214 11.0743L5.48479 10.355C4.07052 9.08434 2.88841 8.02163 2.06104 7.01868C1.23261 6.01443 0.749121 5.0577 0.749121 3.99728C0.749121 2.25714 2.12588 0.9 3.87412 0.9C4.8216 0.9 5.73118 1.31909 6.34912 1.98382C6.96706 1.31909 7.87665 0.9 8.82412 0.9C10.5724 0.9 11.9491 2.25714 11.9491 3.99728C11.9491 5.0577 11.4656 6.01443 10.6372 7.01868C9.80986 8.02159 8.62781 9.08427 7.2136 10.3549L6.34912 11.1347ZM6.34912 11.1347L6.4161 11.0743L7.21346 10.355L6.34912 11.1347ZM6.34638 9.39157C5.04244 8.21925 3.96638 7.251 3.21489 6.38017C2.46062 5.5061 2.04912 4.74752 2.04912 3.99728C2.04912 2.96345 2.82848 2.18992 3.87412 2.18992C4.6828 2.18992 5.4691 2.71225 5.74456 3.41262L5.7695 3.47602H5.83762H6.86062H6.92875L6.95368 3.41262C7.22915 2.71225 8.01545 2.18992 8.82412 2.18992C9.86976 2.18992 10.6491 2.96345 10.6491 3.99728C10.6491 4.74751 10.2376 5.50609 9.48269 6.38014C8.73053 7.25097 7.65307 8.21925 6.34638 9.39157Z" fill="black" stroke="black" stroke-width="0.2"/>
</svg>
